<?xml version="1.0"?>
<svg xmlns="http://www.w3.org/2000/svg" xmlns:xlink="http://www.w3.org/1999/xlink" xmlns:svgjs="http://svgjs.com/svgjs" version="1.1" width="512" height="512" x="0" y="0" viewBox="0 0 512 512" style="enable-background:new 0 0 512 512" xml:space="preserve" class=""><g><g xmlns="http://www.w3.org/2000/svg"><g><path d="m459.825 140.733h-403.65v-115.238c0-8.677 7.034-15.71 15.711-15.71h372.228c8.677 0 15.711 7.034 15.711 15.71z" fill="#f6ae28" data-original="#f7f7f7" style="" class=""/></g><g><path d="m444.114 9.784h-30c8.677 0 15.711 7.034 15.711 15.71v115.238h30v-115.237c0-8.677-7.034-15.711-15.711-15.711z" fill="#f6ae28" data-original="#e8e8e8" style="" class=""/></g><g><path d="m392.634 113.709h-8.973c-5.33 0-9.651-4.321-9.651-9.65v-56.601c0-5.33 4.321-9.65 9.651-9.65h8.973c5.33 0 9.65 4.321 9.65 9.65v56.601c0 5.33-4.32 9.65-9.65 9.65z" fill="#f5f5f5" data-original="#a29aa5" style="" class=""/></g><g><path d="m306.339 62.934h67.671v25.65h-67.671z" fill="#f5f5f5" transform="matrix(-1 0 0 -1 680.35 151.517)" data-original="#766d78" style="" class=""/></g><g><path d="m415.525 88.584h-12.825v-25.65h12.825c7.083 0 12.825 5.742 12.825 12.825 0 7.083-5.742 12.825-12.825 12.825z" fill="#f5f5f5" data-original="#766d78" style="" class=""/></g><g><path d="m287.716 113.709h8.973c5.33 0 9.651-4.321 9.651-9.65v-56.601c0-5.33-4.321-9.65-9.651-9.65h-8.973c-5.33 0-9.65 4.321-9.65 9.65v56.601c0 5.33 4.32 9.65 9.65 9.65z" fill="#f5f5f5" data-original="#a29aa5" style="" class=""/></g><g><path d="m264.825 88.584h12.825v-25.65h-12.825c-7.083 0-12.825 5.742-12.825 12.825 0 7.083 5.742 12.825 12.825 12.825z" fill="#f5f5f5" data-original="#766d78" style="" class=""/></g><g><path d="m26.868 152.835h458.264v349.381h-458.264z" fill="#f6ae28" data-original="#f7e365" style="" class=""/></g><g><path d="m455.132 152.835h30v349.381h-30z" fill="#f6ae28" data-original="#f3d332" style="" class=""/></g><g><path d="m488.449 172.835h-464.898c-8.865 0-16.051-7.186-16.051-16.051 0-8.865 7.186-16.051 16.051-16.051h464.898c8.865 0 16.051 7.186 16.051 16.051 0 8.865-7.186 16.051-16.051 16.051z" fill="#f5f5f5" data-original="#766d78" style="" class=""/></g><g><path d="m26.868 424.025h458.264v78.191h-458.264z" fill="#f5f5f5" data-original="#dbb72b" style="" class=""/></g><g><path d="m452.828 424.025h32.304v78.191h-32.304z" fill="#f5f5f5" data-original="#caa828" style="" class=""/></g><g><path d="m144.985 245.56h111.015v256.656h-111.015z" fill="#f5f5f5" data-original="#9ec8fc" style="" class=""/></g><g><path d="m256 245.56h111.015v256.656h-111.015z" fill="#f5f5f5" data-original="#9ec8fc" style="" class=""/></g><g><path d="m329.273 245.56h37.742v256.656h-37.742z" fill="#f5f5f5" data-original="#80b6fc" style="" class=""/></g><path d="m231.115 371.99v16.499" fill="#f5f5f5" data-original="#9ec8fc" style="" class=""/><path d="m281.408 371.99v16.499" fill="#f5f5f5" data-original="#9ec8fc" style="" class=""/><g><path d="m100.927 57.013c-4.292 0-6.777 2.41-6.777 7.53v19.955c0 5.121 2.485 7.53 6.702 7.53s6.777-2.41 6.777-7.53v-2.56h-4.443c-2.259 0-3.539-2.184-3.539-4.518 0-2.184 1.28-4.518 3.539-4.518h12.651c2.259 0 3.539 1.732 3.539 3.69v7.907c0 12.952-8.132 17.771-18.524 17.771s-18.449-4.819-18.449-17.771v-19.956c0-12.952 8.208-17.771 18.073-17.771 10.768 0 18.9 5.422 18.9 14.985 0 4.518-1.882 5.573-5.874 5.573-3.163 0-5.798-.828-5.873-3.539-.075-2.712-.301-6.778-6.702-6.778z" fill="#000000" data-original="#000000" style="" class=""/><path d="m142.271 79.302c0-.452-.15-.828-.301-1.054l-15.588-25.828c-.15-.301-.15-.603-.15-.828 0-2.786 4.744-4.819 7.982-4.819 1.883 0 2.56.753 3.389 2.184l10.543 19.353 10.467-19.353c.753-1.431 1.506-2.184 3.389-2.184 3.238 0 7.982 2.033 7.982 4.819 0 .226 0 .527-.15.828l-15.513 25.829c-.15.226-.301.603-.301 1.054v18.901c0 2.41-2.937 3.615-5.874 3.615s-5.874-1.205-5.874-3.615v-18.902z" fill="#000000" data-original="#000000" style="" class=""/><path d="m205.452 82.315c-.979 1.656-2.485 2.184-3.916 2.184-1.355 0-2.786-.452-3.689-2.184l-7.154-13.103v28.991c0 2.41-2.937 3.615-5.874 3.615s-5.874-1.205-5.874-3.615v-45.558c0-4.292 2.936-5.873 5.874-5.873 4.217 0 6.024.452 9.111 5.873l7.756 13.554 7.756-13.554c3.087-5.422 4.895-5.873 9.112-5.873 3.012 0 5.873 1.581 5.873 5.873v45.558c0 2.41-2.937 3.615-5.873 3.615-2.937 0-5.874-1.205-5.874-3.615v-28.238z" fill="#000000" data-original="#000000" style="" class=""/></g><g><path d="m231.115 395.989c4.142 0 7.5-3.358 7.5-7.5v-16.499c0-4.142-3.358-7.5-7.5-7.5s-7.5 3.358-7.5 7.5v16.499c0 4.142 3.358 7.5 7.5 7.5z" fill="#000000" data-original="#000000" style="" class=""/><path d="m281.408 395.989c4.142 0 7.5-3.358 7.5-7.5v-16.499c0-4.142-3.358-7.5-7.5-7.5s-7.5 3.358-7.5 7.5v16.499c0 4.142 3.358 7.5 7.5 7.5z" fill="#000000" data-original="#000000" style="" class=""/><path d="m512 156.784c0-12.986-10.565-23.551-23.551-23.551h-21.125v-107.738c0-12.798-10.412-23.21-23.21-23.21h-372.228c-12.798 0-23.21 10.412-23.21 23.21v107.738h-25.125c-12.986 0-23.551 10.565-23.551 23.551 0 11.558 8.371 21.191 19.368 23.171v166.205c0 4.142 3.358 7.5 7.5 7.5s7.5-3.358 7.5-7.5v-165.825h443.265v75.341c0 4.142 3.358 7.5 7.5 7.5s7.5-3.358 7.5-7.5v-75.72c10.995-1.981 19.367-11.614 19.367-23.172zm-448.325-131.289c0-4.527 3.683-8.211 8.21-8.211h372.229c4.527 0 8.21 3.683 8.21 8.211v107.738h-388.649zm424.774 139.84h-464.898c-4.715 0-8.551-3.836-8.551-8.551s3.836-8.551 8.551-8.551h464.898c4.715 0 8.551 3.836 8.551 8.551s-3.836 8.551-8.551 8.551z" fill="#000000" data-original="#000000" style="" class=""/><path d="m485.132 278.175c-4.142 0-7.5 3.358-7.5 7.5v130.849h-103.09c-.009 0-.018.001-.028.001v-170.965c0-4.142-3.358-7.5-7.5-7.5h-111.014-111.015c-4.142 0-7.5 3.358-7.5 7.5v170.965h-103.117v-40.365c0-4.142-3.358-7.5-7.5-7.5s-7.5 3.358-7.5 7.5v126.056c0 4.142 3.358 7.5 7.5 7.5h458.265c4.142 0 7.5-3.358 7.5-7.5v-216.54c-.001-4.143-3.359-7.501-7.501-7.501zm-7.5 176.445h-14.942v-23.095h14.942zm-103.117 15h47.539v25.095h-47.539zm29.66-15v-23.095h43.515v23.095zm-29.633-23.095h14.633v23.095h-14.661v-23.097c.01 0 .019.002.028.002zm-15.027 63.191h-96.015v-241.656h96.015zm-207.03-241.656h96.015v241.656h-96.015zm-87.764 201.56v-23.095h43.515v23.095zm72.764 15v25.095h-39.886v-25.095zm0-15h-14.249v-23.095h14.249zm-87.764-23.095v23.095h-15.353v-23.095zm-15.353 38.095h48.231v25.095h-48.231zm402.685 25.096v-25.096h40.579v25.095h-40.579z" fill="#000000" data-original="#000000" style="" class=""/><path d="m264.825 96.084h5.741v7.975c0 9.457 7.694 17.15 17.15 17.15h8.973c9.456 0 17.15-7.694 17.15-17.15v-7.975h52.671v7.975c0 9.457 7.694 17.15 17.151 17.15h8.973c9.457 0 17.15-7.694 17.15-17.15v-7.975h5.741c11.207 0 20.325-9.118 20.325-20.325s-9.118-20.325-20.325-20.325h-5.741v-7.975c0-9.457-7.694-17.15-17.15-17.15h-8.973c-9.457 0-17.151 7.694-17.151 17.15v7.975h-52.671v-7.975c0-9.457-7.694-17.15-17.15-17.15h-8.973c-9.456 0-17.15 7.694-17.15 17.15v7.975h-5.741c-11.208 0-20.325 9.118-20.325 20.325s9.118 20.325 20.325 20.325zm145.375-25.65h5.325c2.936 0 5.325 2.389 5.325 5.325s-2.389 5.325-5.325 5.325h-5.325zm-28.69-22.976c0-1.186.965-2.15 2.151-2.15h8.973c1.185 0 2.15.965 2.15 2.15v56.601c0 1.186-.965 2.15-2.15 2.15h-8.973c-1.186 0-2.151-.965-2.151-2.15v-15.475-25.65zm-15 22.976v10.65h-52.671v-10.65zm-80.944-22.976c0-1.186.965-2.15 2.15-2.15h8.973c1.185 0 2.15.965 2.15 2.15v15.475 25.65 15.475c0 1.186-.965 2.15-2.15 2.15h-8.973c-1.185 0-2.15-.965-2.15-2.15zm-20.741 22.976h5.325v10.65h-5.325c-2.936 0-5.325-2.389-5.325-5.325 0-2.937 2.389-5.325 5.325-5.325z" fill="#000000" data-original="#000000" style="" class=""/></g></g></g></svg>
